<svg version="1" xmlns="http://www.w3.org/2000/svg" width="1600" height="1600" viewBox="0 0 1200.000000 1200.000000"><path d="M1161.7 9.2c-3 5.1-39.3 68-80.7 139.8-41.4 71.8-75.7 131.1-76.3 131.8-.7.9-3.6-1.5-11.8-10.1-35.6-37.5-90.2-70.2-146.9-88.1-68.3-21.6-152.4-27.2-233.5-15.5-90.7 13-179.8 49.4-244.7 100-60.5 47-100.5 108.1-116.8 178.3-4.7 20.3-6.2 32.6-6.7 55.6-.7 32.3 2.4 56.6 10.3 81 14.5 44.1 43.1 75.2 80.4 87.3 28 9.1 63.5 6.9 108-6.7 6.3-1.9 11.7-3.2 11.9-3 1.4 1.3-9.7 60.6-16.1 85.9-5.2 20.8-15.2 50.9-21.8 65.8-2.9 6.5-5.4 11.6-5.6 11.5-.1-.2 1.3-4.7 3.2-10.2 15.8-45.3 5.6-86.7-27.5-111.8-23.3-17.6-56.4-22.4-91.8-13.2-54.8 14.2-111.9 56-133.3 97.5-9.1 17.8-12 33-12.1 63.9 0 31.7 6.5 60.8 19.7 89 26.5 55.8 77.8 91.3 145.5 100.6 14.9 2.1 52.2 2.3 70.4.5 62.6-6.3 119.1-25.7 168.5-57.9l11.5-7.4 3.4 4.3c1.9 2.4 7.4 8.3 12.2 13l8.6 8.7-8.2 14.3c-4.6 7.9-30.6 53-57.8 100.1l-49.5 85.8H1200V0h-32.9l-5.4 9.2zM736.1 188c97.2 7.6 178.5 41.2 233.9 96.9 17 17.1 25.3 28.3 34.9 47.1 20.1 39.7 25 83.8 14.5 130.9-4.9 21.7-13.6 41.7-25.7 58.8-8 11.2-26.4 30.3-39.2 40.6-8.9 7.2-34.8 25-37.8 26-.6.2.6 1.9 2.8 3.8 38.6 33 60.2 73.1 67.1 124.4 2 15.3 2.3 47.3.5 61-7.6 58.3-34 111.4-76.6 154-42.4 42.4-96.5 69.3-157 78.1-16.7 2.5-53.4 2.5-69.9 0-56.7-8.3-93.6-33.7-108-74-.6-1.8-.8-1.8-3.4.6-4.7 4.4-18.6 14.5-30.3 22.1-45.4 29.6-95.3 47.6-149.4 54.2-20.7 2.6-53.3 3.1-70.1 1.1-43.8-5.1-76.8-20.4-103-47.9-32.4-33.9-48.3-84-43.4-137.2 2.2-23.6 9.8-39.1 28.9-58.9 27.4-28.2 68.4-51.4 104.6-59.2 10.8-2.3 29.9-2.3 38.5-.1 22 5.8 38.9 21.3 45.6 42.1 2.2 6.6 2.7 10.1 2.7 19.1.1 16.3-2.9 27.4-15.1 55-12.5 28.6-13.5 32.8-11.6 49.2l.7 5.3h6.7c21.5 0 39.8-14.9 56.8-46 16.2-29.9 31-79.3 41.7-139.3 3.7-21.2 11.9-77.7 11.2-78.3-.2-.2-3.3 1.2-7 3.2-29.9 15.9-77.5 28.6-107.2 28.6-27.4.1-46.5-7.9-65.5-27.1-15.5-15.7-24.5-32.5-31-57.7-5-19.4-6.4-31.6-6.4-56.4-.1-23.2.9-32.1 5.5-53.5 18.2-83.4 72.5-151.7 160.5-201.9 13.4-7.6 41.9-21 59.4-27.9 51.9-20.4 104.3-32.4 160.5-36.6 16.2-1.2 65.1-1.3 80.6-.1z"/><path d="M669.1 231.1c-111.8 5.8-220.3 49.3-285.3 114.3-33.1 33-54 69.9-64.8 114-6 24.5-7.6 50.3-4.5 73.9 5.4 41.3 20.5 64.6 46 71.2 7.5 1.9 14 1.9 27.4-.1 43.1-6.3 89.1-26.8 98.1-43.6 4.4-8.4 2.6-10.3-18.9-20.1-17.1-7.8-26.3-13.8-35.1-22.7-14.6-14.9-21.6-31.6-24-57.7-1.7-19.2.7-33.8 8.2-48.8 11.3-22.4 31.9-45.8 57.2-65 15.7-11.9 29.3-20.2 50.6-30.9 57.1-28.6 112.9-42.1 167.5-40.3 49 1.6 85 14.6 112.6 40.5 21.3 20 34 45.1 39.5 78.2 2.2 13.3 2.9 35.1 1.4 48.1-4.5 40.9-24.4 83.3-47.3 100.4-11.7 8.8-19.2 11.5-44.6 16-7.9 1.3-14.5 2.6-14.7 2.8-.7.6-6.2 37.2-5.8 37.9.3.4 1.1.8 1.9.8 2.8 0 25.2 7.2 31.8 10.2 12 5.5 21.5 17.9 30 38.8l4.2 10.5-.1 26c0 35.1-3.3 65.5-11.9 111.5-13.4 71.8-31.4 113-54.3 124.2-5.9 2.9-7.5 3.3-14.7 3.2-9.1-.1-13.3-1.5-18.9-6.4-8.8-7.8-11.5-19.8-9.7-43.4.6-8.3 1.1-17.9 1.1-21.4 0-12.9-3.5-19.2-10.6-19.2-16.3 0-48.7 28-61 52.8-4.7 9.5-6.1 17.8-4.7 27.7 4 27.8 31 46.1 76.7 52.1 16.4 2.2 46.2 1.5 63.1-1.5 73.1-12.9 136.1-60 168-125.6 15.5-31.7 22.6-64.8 21.2-98.5-1.9-44.9-15.5-78.1-43.6-106-18-17.9-37.1-29.9-68.5-43.1l-14.8-6.2 17.8-7.2c63.8-25.6 103.2-52.8 125.4-86.5 13.8-21.2 20.8-49.8 19.7-81-.9-22.9-4.5-38.3-13.7-57.5-15.6-32.6-49.9-63-97.5-86.5-43.8-21.6-90-32.9-147.5-35.9-21.5-1.2-30-1.2-52.9 0z"/><path d="M729.4 341c-27.4 2.9-57.4 14.4-80.3 30.8-11.1 7.9-30.5 26.1-40.6 38.3-22.1 26.5-37.1 54.1-50.1 92.4-13.5 39.5-21.8 78.4-31.9 148.9-8.2 57.4-14.5 90-24 124.3-24.2 87.1-57.3 134.2-103 146.4-6.4 1.7-11 2.2-23.5 2.2-14.4.1-16.1-.1-23.9-2.7-17-5.6-23.8-17.9-26.3-47.3-1.8-21.7.1-30.3 13.3-60.1 13-29.2 15.9-40.6 12.5-49.5-4.3-11.3-15.6-15-34.4-11.1-29.4 6-68.3 29.7-86.7 52.7-10.2 12.8-10.9 15.2-11 39.7 0 22.5 1 29.4 6.6 47 11.4 35.1 36 59.6 70.9 70.8 18.8 6 24.7 6.7 55.5 6.6 23.8 0 30.2-.3 42.5-2.3 51.4-7.9 96.3-26.3 137-56 66.4-48.5 113.3-117.9 134.5-199.4 7-27 7.8-32.5 18-123.2 8.9-78.5 15.4-112.6 28.6-148.8 11-30 29.6-59.6 43.9-69.8 8.2-5.9 10-8 9.3-10.8-1.1-4.9-4.1-9.7-8.6-13.8-6.7-6.2-11.4-7.1-28.3-5.3z"/></svg>